<?xml version="1.0" encoding="UTF-8" standalone="no"?>
<svg
   version="1.1"
   id="logo-background-svg"
   class="logo"
   viewBox="0 0 300 300"
   xmlns="http://www.w3.org/2000/svg"
   xmlns:svg="http://www.w3.org/2000/svg">
  <defs
     id="logo-defs" />
  <rect
     id="background"
     class="background-square"
     fill="#81b989"
     x="-1"
     y="-1"
     width="300"
     height="300" />
  <g
     id="logo"
     transform="translate(25,190)"
     fill="#01384a">
     <path
        id="logo-110-i-path-001"
        d="M 10.043945,0 Q 7.6269531,0 7.6269531,-2.4169922 V -53.979492 q 0,-2.416992 2.4169919,-2.416992 h 4.619141 q 2.416992,0 2.416992,2.416992 V -2.4169922 Q 17.080078,0 14.663086,0 Z m 0,-66.601562 q -2.4169919,0 -2.4169919,-2.416993 v -4.61914 q 0,-2.416992 2.4169919,-2.416992 h 4.619141 q 2.416992,0 2.416992,2.416992 v 4.61914 q 0,2.416993 -2.416992,2.416993 z" />
     <path
        id="logo-110-l-path-001"
        d="M 34.750977,0 Q 32.333984,0 32.333984,-2.4169922 V -69.448242 q 0,-1.074219 0.53711,-2.041016 l 3.759765,-6.821289 q 1.020508,-1.879883 1.665039,-1.879883 h 1.879883 q 1.611328,0 1.611328,1.879883 V -2.4169922 Q 41.787109,0 39.370117,0 Z" />
     <path
        id="logo-110-l-path-002"
        d="M 59.458008,0 Q 57.041016,0 57.041016,-2.4169922 V -69.448242 q 0,-1.074219 0.537109,-2.041016 l 3.759766,-6.821289 q 1.020507,-1.879883 1.665039,-1.879883 h 1.879882 q 1.611329,0 1.611329,1.879883 V -2.4169922 Q 66.494141,0 64.077148,0 Z" />
     <path
        id="logo-110-i-path-002"
        d="M 84.165039,0 Q 81.748047,0 81.748047,-2.4169922 V -53.979492 q 0,-2.416992 2.416992,-2.416992 h 4.619141 q 2.416992,0 2.416992,2.416992 V -2.4169922 Q 91.201172,0 88.78418,0 Z m 0,-66.601562 q -2.416992,0 -2.416992,-2.416993 v -4.61914 q 0,-2.416992 2.416992,-2.416992 h 4.619141 q 2.416992,0 2.416992,2.416992 v 4.61914 q 0,2.416993 -2.416992,2.416993 z" />
     <path
        id="logo-110-dot-path-001"
        d="m 111.93359,0 q -2.41699,0 -2.41699,-2.4169922 v -6.5527344 q 0,-2.4169924 2.41699,-2.4169924 h 6.01563 q 2.41699,0 2.41699,2.4169924 v 6.5527344 Q 120.36621,0 117.94922,0 Z" />
     <path
        id="logo-110-a-path-001"
        d="m 135.62012,-15.039063 q 0,-9.560546 8.91601,-14.018554 8.96973,-4.458008 26.74805,-5.209961 v -3.652344 q 0,-5.048828 -2.30957,-8.701172 -2.25586,-3.706054 -9.02344,-3.706054 -4.29687,0 -6.875,0.859375 -2.57812,0.805664 -4.72656,2.202148 -2.09473,1.342773 -4.02832,3.491211 -1.4502,1.611328 -2.73926,0.161133 l -2.79297,-3.222656 q -1.18164,-1.342774 0.80567,-3.222657 2.84668,-2.685547 5.53222,-4.02832 2.68555,-1.342773 6.66016,-2.255859 4.02832,-0.966797 8.16406,-0.966797 11.22559,0 16.00586,5.800781 4.78027,5.74707 4.78027,15.791016 V -2.4169922 Q 180.7373,0 178.32031,0 h -4.83398 q -2.09473,0 -2.09473,-2.4169922 v -2.6318359 h -0.10742 q -4.24316,3.3300781 -8.3252,4.67285154 -4.02832,1.2890625 -9.02343,1.2890625 -8.8086,0 -13.58887,-4.18945314 -4.72656,-4.243164 -4.72656,-11.7626958 z m 9.77539,0.214844 q 0,3.330078 1.39648,5.371094 1.39649,1.9873047 3.86719,2.578125 2.4707,0.5371094 5.15625,0.5371094 4.13574,0 7.8418,-0.8056641 3.70605,-0.805664 7.62695,-4.2431643 v -15.844726 q -10.84961,0.805664 -15.46875,1.987304 -4.61914,1.12793 -7.51953,3.97461 -2.90039,2.792969 -2.90039,6.445312 z" />
     <path
        id="logo-110-c-path-001"
        d="m 192.92969,-28.198242 q 0,-12.62207 6.23047,-20.839844 6.28418,-8.271484 19.1748,-8.271484 8.70117,0 13.2666,3.115234 4.61914,3.061524 6.66016,6.28418 1.12793,1.772461 -0.4834,2.846679 l -3.38379,2.202149 q -1.61133,1.12793 -3.22266,-1.450195 -1.55761,-2.470704 -4.40429,-4.243164 -2.79297,-1.772461 -8.43262,-1.772461 -7.3584,0 -11.38672,5.424804 -4.02832,5.424805 -4.02832,16.704102 0,11.279297 4.02832,16.704101 4.02832,5.4248051 11.38672,5.4248051 5.96191,0 9.13086,-2.2558594 3.16895,-2.3095707 4.61914,-4.9951177 1.39649,-2.524414 3.16895,-1.450195 l 3.59863,2.148438 q 1.61133,0.966797 0.4834,2.9003903 -1.34278,2.3095703 -6.12305,6.4990234 -4.72656,4.13574224 -14.87793,4.13574224 -12.89062,0 -19.1748,-8.21777344 -6.23047,-8.2714845 -6.23047,-20.8935545 z" />
  </g>
</svg>
