<?xml version="1.0" encoding="UTF-8" standalone="no"?>
<svg viewBox="0 0 300 300" class="iconLeftSlogan" xmlns="http://www.w3.org/2000/svg" xmlns:svg="http://www.w3.org/2000/svg" id="illiac" version="1.0">
  <defs id="defs856"/>
  <sodipodi:namedview xmlns:sodipodi="http://sodipodi.sourceforge.net/DTD/sodipodi-0.dtd" id="namedview854" pagecolor="#505050" bordercolor="#eeeeee" borderopacity="1" inkscape:pageshadow="0" xmlns:inkscape="http://www.inkscape.org/namespaces/inkscape" inkscape:pageopacity="0" inkscape:pagecheckerboard="0" showgrid="false" inkscape:zoom="2.6666667" inkscape:cx="131.625" inkscape:cy="150" inkscape:window-width="1920" inkscape:window-height="1001" inkscape:window-x="-9" inkscape:window-y="-9" inkscape:window-maximized="1" inkscape:current-layer="svg852"/>
  <rect fill="#9EC1A2" x="0" y="0" width="300px" height="300px" class="logo-background-square" id="logo-background" inkscape:export-filename="C:\Users\Anthony\Pictures\illiac\custome\rect841.png" xmlns:inkscape="http://www.inkscape.org/namespaces/inkscape" inkscape:export-xdpi="96" inkscape:export-ydpi="96" inkscape:label="logo-background" style="fill:#81b989;fill-opacity:1"/>
  <g data-v-fde0c5aa="" fill="#ffffff" id="illiac" transform="matrix(5,0,0,5,121,105)">
    <path id="illiac-path" inkscape:label="illiac-path" xmlns:inkscape="http://www.inkscape.org/namespaces/inkscape" d="M 1.87,13.33 H 1.28 v 0 q -0.31,0 -0.31,-0.31 v 0 -6.56 0 q 0,-0.31 0.31,-0.31 v 0 h 0.59 v 0 q 0.3,0 0.3,0.31 v 0 6.56 0 q 0,0.31 -0.3,0.31 z m 0,-8.48 H 1.28 v 0 q -0.31,0 -0.31,-0.3 v 0 -0.59 0 q 0,-0.31 0.31,-0.31 v 0 h 0.59 v 0 q 0.3,0 0.3,0.31 v 0 0.59 0 q 0,0.3 -0.3,0.3 z m 3.14,8.48 H 4.42 v 0 q -0.3,0 -0.3,-0.31 v 0 -8.53 0 q 0,-0.14 0.06,-0.26 v 0 L 4.66,3.36 v 0 Q 4.79,3.12 4.87,3.12 v 0 h 0.24 v 0 q 0.21,0 0.21,0.24 v 0 9.66 0 q 0,0.31 -0.31,0.31 z m 3.15,0 H 7.57 v 0 q -0.31,0 -0.31,-0.31 v 0 -8.53 0 q 0,-0.14 0.07,-0.26 v 0 L 7.81,3.36 v 0 Q 7.94,3.12 8.02,3.12 v 0 h 0.24 v 0 q 0.2,0 0.2,0.24 v 0 9.66 0 q 0,0.31 -0.3,0.31 z m 3.14,0 h -0.59 v 0 q -0.31,0 -0.31,-0.31 v 0 -6.56 0 q 0,-0.31 0.31,-0.31 v 0 h 0.59 v 0 q 0.31,0 0.31,0.31 v 0 6.56 0 q 0,0.31 -0.31,0.31 z m 0,-8.48 h -0.59 v 0 q -0.31,0 -0.31,-0.3 v 0 -0.59 0 q 0,-0.31 0.31,-0.31 v 0 h 0.59 v 0 q 0.31,0 0.31,0.31 v 0 0.59 0 q 0,0.3 -0.31,0.3 z m 3.71,8.48 h -0.76 v 0 q -0.31,0 -0.31,-0.31 v 0 -0.83 0 q 0,-0.31 0.31,-0.31 v 0 h 0.76 v 0 q 0.31,0 0.31,0.31 v 0 0.83 0 q 0,0.31 -0.31,0.31 z m 2.25,-1.91 v 0 0 q 0,-1.22 1.14,-1.79 v 0 0 q 1.14,-0.57 3.4,-0.66 v 0 -0.47 0 q 0,-0.64 -0.29,-1.11 v 0 0 Q 21.22,6.92 20.36,6.92 v 0 0 q -0.55,0 -0.88,0.11 v 0 0 q -0.33,0.11 -0.6,0.28 v 0 0 q -0.27,0.18 -0.51,0.45 v 0 0 q -0.19,0.2 -0.35,0.02 v 0 L 17.66,7.37 v 0 Q 17.51,7.2 17.77,6.96 v 0 0 q 0.36,-0.34 0.7,-0.51 v 0 0 q 0.34,-0.17 0.85,-0.29 v 0 0 q 0.51,-0.12 1.04,-0.12 v 0 0 q 1.43,0 2.03,0.73 v 0 0 Q 23,7.51 23,8.78 v 0 4.24 0 q 0,0.31 -0.3,0.31 v 0 h -0.62 v 0 q -0.27,0 -0.27,-0.31 v 0 -0.33 H 21.8 v 0 q -0.54,0.42 -1.06,0.59 v 0 0 q -0.51,0.17 -1.15,0.17 v 0 0 q -1.12,0 -1.72,-0.54 v 0 0 q -0.61,-0.54 -0.61,-1.49 z m 1.24,0.02 v 0 0 q 0,0.43 0.18,0.68 v 0 0 q 0.18,0.26 0.49,0.33 v 0 0 q 0.32,0.07 0.66,0.07 v 0 0 q 0.53,0 1,-0.1 v 0 0 q 0.47,-0.1 0.97,-0.54 v 0 -2.02 0 q -1.38,0.11 -1.97,0.25 v 0 0 q -0.59,0.15 -0.96,0.51 v 0 0 q -0.37,0.36 -0.37,0.82 z m 6.05,-1.7 v 0 0 q 0,-1.61 0.8,-2.65 v 0 0 q 0.8,-1.05 2.44,-1.05 v 0 0 q 1.11,0 1.69,0.39 v 0 0 q 0.58,0.39 0.84,0.8 v 0 0 q 0.15,0.23 -0.06,0.36 v 0 l -0.43,0.29 v 0 q -0.2,0.14 -0.41,-0.19 v 0 0 Q 29.22,7.38 28.86,7.15 v 0 0 Q 28.51,6.92 27.79,6.92 v 0 0 q -0.94,0 -1.45,0.7 v 0 0 q -0.51,0.69 -0.51,2.12 v 0 0 q 0,1.44 0.51,2.13 v 0 0 q 0.51,0.69 1.45,0.69 v 0 0 q 0.76,0 1.16,-0.29 v 0 0 q 0.4,-0.29 0.59,-0.64 v 0 0 q 0.18,-0.32 0.4,-0.18 v 0 l 0.46,0.27 v 0 q 0.2,0.13 0.06,0.37 v 0 0 q -0.17,0.3 -0.77,0.83 v 0 0 q -0.61,0.53 -1.9,0.53 v 0 0 q -1.64,0 -2.44,-1.05 v 0 0 q -0.8,-1.05 -0.8,-2.66 z"/>
  </g>
  <g data-v-fde0c5aa="" fill="#ffffff" id="opening-computation" transform="matrix(0.5,0,0,0.5,128,175)">
    <path d="m 5.25,2.1 c -2.81,0 -4.7,2.11 -4.7,4.75 0,2.63 1.89,4.74 4.7,4.74 2.81,0 4.7,-2.11 4.7,-4.74 C 9.95,4.21 8.06,2.1 5.25,2.1 Z m 0,8.47 C 3,10.57 1.6,8.93 1.6,6.85 1.6,4.76 3,3.12 5.25,3.12 7.5,3.12 8.9,4.76 8.9,6.85 8.9,8.93 7.5,10.57 5.25,10.57 Z M 19.68,8.18 h 3.13 C 24.78,8.18 26,7.03 26,5.19 26,3.37 24.78,2.21 22.81,2.21 h -4.18 v 9.27 h 1.05 z m 3.06,-4.97 c 1.45,0 2.21,0.75 2.21,1.98 0,1.25 -0.76,2.01 -2.21,2.01 H 19.68 V 3.21 Z m 18.5,0.01 V 2.21 h -6.81 v 9.27 h 6.81 V 10.47 H 35.48 V 7.35 h 5.15 V 6.33 H 35.48 V 3.22 Z M 56.88,2.21 v 7.8 l -5.72,-7.8 h -1.22 v 9.27 h 1.05 V 3.65 l 5.72,7.83 h 1.22 V 2.21 Z m 11.37,0 H 67.2 v 9.27 h 1.05 z m 16.21,0 v 7.8 l -5.72,-7.8 h -1.22 v 9.27 h 1.05 V 3.65 l 5.72,7.83 h 1.22 V 2.21 Z M 98.76,2.1 c -2.79,0 -4.57,2.11 -4.57,4.75 0,2.63 1.71,4.74 4.54,4.74 1.68,0 2.77,-0.85 3.36,-1.75 v 1.64 h 0.96 V 6.55 H 98.7 V 7.5 h 3.39 c 0,1.94 -1.6,3.07 -3.28,3.07 -2.25,0 -3.57,-1.64 -3.57,-3.72 0,-2.09 1.35,-3.73 3.6,-3.73 1.41,0 2.42,0.62 2.98,1.61 h 1.15 C 102.28,3.18 100.74,2.1 98.76,2.1 Z m 27.1,8.47 c -2.25,0 -3.51,-1.64 -3.51,-3.72 0,-2.09 1.26,-3.73 3.51,-3.73 1.53,0 2.53,0.73 3.01,1.86 h 1.11 c -0.59,-1.69 -2.1,-2.88 -4.2,-2.88 -2.79,0 -4.48,2.11 -4.48,4.75 0,2.63 1.69,4.74 4.48,4.74 2.1,0 3.61,-1.19 4.2,-2.88 h -1.11 c -0.48,1.13 -1.48,1.86 -3.01,1.86 z M 142.59,2.1 c -2.81,0 -4.7,2.11 -4.7,4.75 0,2.63 1.89,4.74 4.7,4.74 2.81,0 4.7,-2.11 4.7,-4.74 0,-2.64 -1.89,-4.75 -4.7,-4.75 z m 0,8.47 c -2.25,0 -3.65,-1.64 -3.65,-3.72 0,-2.09 1.4,-3.73 3.65,-3.73 2.25,0 3.65,1.64 3.65,3.73 0,2.08 -1.4,3.72 -3.65,3.72 z m 21.18,-8.36 -3.26,4.4 -3.32,-4.4 h -1.22 v 9.27 h 1.05 V 3.81 l 3.49,4.41 3.43,-4.41 v 7.67 h 1.05 V 2.21 Z m 11.54,5.97 h 3.12 c 1.97,0 3.19,-1.15 3.19,-2.99 0,-1.82 -1.22,-2.98 -3.19,-2.98 h -4.17 v 9.27 h 1.05 z m 3.05,-4.97 c 1.46,0 2.21,0.75 2.21,1.98 0,1.25 -0.75,2.01 -2.21,2.01 h -3.05 V 3.21 Z m 18.41,-1 v 5.31 c 0,2.15 -1.43,3.05 -2.9,3.05 -1.47,0 -2.88,-0.9 -2.88,-3.05 V 2.21 h -1.05 v 5.28 c 0,2.46 1.62,4.1 3.93,4.1 2.33,0 3.95,-1.65 3.95,-4.1 V 2.21 Z m 16.79,0 h -7.52 v 1.01 h 3.23 v 8.26 h 1.05 V 3.22 h 3.24 z m 11.66,0 h -1.32 l -3.93,9.27 h 1.16 l 1.13,-2.69 h 4.6 l 1.13,2.69 h 1.16 z m -2.55,5.62 1.89,-4.53 1.89,4.53 z m 20.41,-5.62 h -7.52 v 1.01 h 3.24 v 8.26 h 1.05 V 3.22 h 3.23 z m 9.38,0 h -1.05 v 9.27 h 1.05 z M 265.85,2.1 c -2.82,0 -4.71,2.11 -4.71,4.75 0,2.63 1.89,4.74 4.71,4.74 2.81,0 4.7,-2.11 4.7,-4.74 0,-2.64 -1.89,-4.75 -4.7,-4.75 z m 0,8.47 c -2.26,0 -3.66,-1.64 -3.66,-3.72 0,-2.09 1.4,-3.73 3.66,-3.73 2.25,0 3.65,1.64 3.65,3.73 0,2.08 -1.4,3.72 -3.65,3.72 z m 20.32,-8.36 v 7.8 l -5.72,-7.8 h -1.22 v 9.27 h 1.05 V 3.65 l 5.73,7.83 h 1.21 V 2.21 Z" id="path846" inkscape:label="opening-computation-path" xmlns:inkscape="http://www.inkscape.org/namespaces/inkscape"/>
  </g>
  <g stroke="none" fill="#01384a" id="illiac-symbol" transform="matrix(2.4,0,0,2.4,40,112)" inkscape:groupmode="layer" xmlns:inkscape="http://www.inkscape.org/namespaces/inkscape">
    <path d="M 17.572,23.933 21.678,31.028 32,13.189 H 23.019 V 7.582 L 11.51,0.972 0,7.582 v 13.222 l 11.51,6.611 z m 10.96,-8.744 -6.855,11.846 -6.855,-11.846 z" id="path849" inkscape:label="illiac-symbol-path"/>
  </g>
</svg>