<?xml version="1.0" encoding="UTF-8" standalone="no"?>
<svg
   version="1.1"
   id="logo-slogan-icon-left-white-text-svg"
   class="logo-slogan-icon-left"
   viewBox="0 0 342 90"
   xmlns="http://www.w3.org/2000/svg"
   xmlns:svg="http://www.w3.org/2000/svg">
  <defs
     id="logo-defs" />
  <g
     id="logo-slogan-icon-left"
     transform="translate(53,0)">
    <g
       id="logo-slogan"
       transform="translate(81,67)"
       fill="#ffffff">
       <g
          id="logo">
         <path
            id="logo-i-path-001"
            d="M 6.300293,0 Q 4.7841797,0 4.7841797,-1.5161133 V -33.859863 q 0,-1.516114 1.5161133,-1.516114 h 2.8974609 q 1.5161131,0 1.5161131,1.516114 V -1.5161133 Q 10.713867,0 9.1977539,0 Z m 0,-41.777344 q -1.5161133,0 -1.5161133,-1.516113 v -2.897461 q 0,-1.516113 1.5161133,-1.516113 h 2.8974609 q 1.5161131,0 1.5161131,1.516113 v 2.897461 q 0,1.516113 -1.5161131,1.516113 z" />
         <path
            id="logo-l-path-001"
            d="M 21.79834,0 Q 20.282227,0 20.282227,-1.5161133 V -43.562988 q 0,-0.673828 0.336914,-1.280274 l 2.358398,-4.278808 q 0.640137,-1.1792 1.044434,-1.1792 h 1.179199 q 1.010742,0 1.010742,1.1792 V -1.5161133 Q 26.211914,0 24.695801,0 Z" />
         <path
            id="logo-l-path-002"
            d="M 37.296387,0 Q 35.780273,0 35.780273,-1.5161133 V -43.562988 q 0,-0.673828 0.336914,-1.280274 l 2.358399,-4.278808 q 0.640137,-1.1792 1.044434,-1.1792 h 1.179199 q 1.010742,0 1.010742,1.1792 V -1.5161133 Q 41.709961,0 40.193848,0 Z" />
         <path
            id="logo-i-path-002"
            d="M 52.794434,0 Q 51.27832,0 51.27832,-1.5161133 V -33.859863 q 0,-1.516114 1.516114,-1.516114 h 2.897461 q 1.516113,0 1.516113,1.516114 V -1.5161133 Q 57.208008,0 55.691895,0 Z m 0,-41.777344 q -1.516114,0 -1.516114,-1.516113 v -2.897461 q 0,-1.516113 1.516114,-1.516113 h 2.897461 q 1.516113,0 1.516113,1.516113 v 2.897461 q 0,1.516113 -1.516113,1.516113 z" />
         <path
            id="logo-dot-path-001"
            d="m 70.212891,0 q -1.516114,0 -1.516114,-1.5161133 v -4.1103515 q 0,-1.5161133 1.516114,-1.5161133 h 3.773437 q 1.516113,0 1.516113,1.5161133 v 4.1103515 Q 75.502441,0 73.986328,0 Z" />
         <path
            id="logo-a-path-001"
            d="m 85.070801,-9.4335938 q 0,-5.9970702 5.592773,-8.7934572 5.626465,-2.796386 16.778316,-3.268066 v -2.291016 q 0,-3.166992 -1.44873,-5.458008 -1.41503,-2.324707 -5.66015,-2.324707 -2.695315,0 -4.312502,0.539063 -1.617188,0.505371 -2.964844,1.381348 -1.313965,0.842285 -2.526855,2.189941 -0.909668,1.010742 -1.718262,0.101074 l -1.751953,-2.021484 q -0.741211,-0.842285 0.505371,-2.021485 1.785644,-1.68457 3.470215,-2.526855 1.68457,-0.842285 4.177734,-1.415039 2.526856,-0.606445 5.121096,-0.606445 7.0415,0 10.04004,3.638671 2.99853,3.604981 2.99853,9.905274 V -1.5161133 Q 113.37158,0 111.85547,0 h -3.03223 q -1.31396,0 -1.31396,-1.5161133 v -1.6508789 h -0.0674 q -2.66162,2.0888672 -5.22216,2.93115236 -2.526859,0.80859375 -5.66016,0.80859375 -5.52539,0 -8.523925,-2.62792971 -2.964844,-2.6616211 -2.964844,-7.378418 z m 6.131836,0.1347657 q 0,2.0888672 0.875976,3.3691406 0.875977,1.246582 2.425782,1.6171875 1.549804,0.3369141 3.234375,0.3369141 2.59424,0 4.91894,-0.5053711 2.32471,-0.5053711 4.78418,-2.6616211 v -9.9389649 q -6.80566,0.505371 -9.70312,1.246582 -2.897461,0.70752 -4.716797,2.493164 -1.819336,1.751953 -1.819336,4.0429689 z" />
         <path
            id="logo-c-path-001"
            d="m 121.01953,-17.687988 q 0,-7.917481 3.9082,-13.072266 3.9419,-5.188476 12.02784,-5.188476 5.458,0 8.32177,1.954101 2.89746,1.92041 4.17774,3.941895 0.70752,1.111816 -0.30322,1.785644 l -2.12256,1.381348 q -1.01075,0.707519 -2.02149,-0.909668 -0.97705,-1.549805 -2.76269,-2.661621 -1.75196,-1.111817 -5.28955,-1.111817 -4.61573,0 -7.14258,3.402832 -2.52686,3.402832 -2.52686,10.478028 0,7.075195 2.52686,10.4780271 2.52685,3.402832 7.14258,3.402832 3.73974,0 5.72754,-1.4150391 1.98779,-1.4487304 2.89746,-3.1333008 0.87597,-1.583496 1.98779,-0.9096679 l 2.25732,1.3476562 q 1.01075,0.6064453 0.30323,1.819336 -0.84229,1.4487304 -3.84082,4.0766601 -2.96485,2.59423831 -9.33252,2.59423831 -8.08594,0 -12.02784,-5.15478511 -3.9082,-5.1884766 -3.9082,-13.1059568 z" />
       </g>
       <g
          id="slogan"
          transform="translate(0,10)">
         <path
            id="slogan-O-path-001"
            d="M 3,0.064 Q 2.4,0.064 1.904,-0.144 1.408,-0.352 1.048,-0.728 0.696,-1.104 0.504,-1.592 0.312,-2.088 0.312,-2.648 q 0,-0.568 0.192,-1.056 0.192,-0.488 0.544,-0.864 0.36,-0.376 0.856,-0.584 Q 2.4,-5.36 3,-5.36 q 0.6,0 1.096,0.208 0.496,0.208 0.848,0.584 0.36,0.376 0.552,0.864 0.192,0.488 0.192,1.056 0,0.56 -0.192,1.056 Q 5.304,-1.104 4.944,-0.728 4.592,-0.352 4.096,-0.144 3.6,0.064 3,0.064 Z M 3,-0.52 q 0.648,0 1.112,-0.28 0.472,-0.288 0.72,-0.768 0.256,-0.488 0.256,-1.08 0,-0.6 -0.256,-1.08 -0.248,-0.48 -0.72,-0.76 Q 3.648,-4.776 3,-4.776 q -0.64,0 -1.112,0.288 -0.472,0.28 -0.728,0.76 -0.248,0.48 -0.248,1.08 0,0.592 0.248,1.08 0.256,0.48 0.728,0.768 Q 2.36,-0.52 3,-0.52 Z" />
         <path
            id="slogan-P-path-001"
           d="m 10.05599,0 v -5.296 h 2.384 q 0.848,0 1.336,0.464 0.488,0.456 0.488,1.24 0,0.784 -0.488,1.248 -0.488,0.456 -1.336,0.456 h -1.784 V 0 Z m 0.6,-2.448 h 1.744 q 0.624,0 0.944,-0.304 0.32,-0.304 0.32,-0.84 0,-0.528 -0.32,-0.832 -0.32,-0.304 -0.944,-0.304 h -1.744 z" />
         <path
            id="slogan-E-path-001"
            d="m 18.487981,0 v -5.296 h 3.896 v 0.576 h -3.296 v 1.776 h 2.944 v 0.584 h -2.944 v 1.784 h 3.296 V 0 Z" />
         <path
            id="slogan-N-path-001"
            d="m 26.759969,0 v -5.296 h 0.696 l 3.272,4.456 v -4.456 h 0.6 V 0 h -0.696 l -3.272,-4.472 V 0 Z" />
         <path
            id="slogan-I-path-001"
            d="m 36.031957,0 v -5.296 h 0.6 V 0 Z" />
         <path
            id="slogan-N-path-002"
            d="m 41.335943,0 v -5.296 h 0.696 l 3.272,4.456 v -4.456 h 0.6 V 0 h -0.696 l -3.272,-4.472 V 0 Z" />
         <path
            id="slogan-G-path-001"
            d="m 52.86393,0.064 q -0.808,0 -1.392,-0.36 -0.576,-0.368 -0.888,-0.984 -0.312,-0.616 -0.312,-1.368 0,-0.752 0.32,-1.368 0.32,-0.616 0.904,-0.976 0.592,-0.368 1.384,-0.368 0.856,0 1.48,0.424 0.632,0.416 0.928,1.08 h -0.656 q -0.24,-0.424 -0.672,-0.672 -0.424,-0.248 -1.032,-0.248 -0.64,0 -1.104,0.288 -0.464,0.28 -0.712,0.76 -0.24,0.48 -0.24,1.08 0,0.592 0.24,1.08 0.24,0.48 0.696,0.768 0.464,0.28 1.104,0.28 0.48,0 0.904,-0.208 0.432,-0.208 0.696,-0.6 0.272,-0.392 0.272,-0.944 h -1.936 v -0.544 h 2.488 V 0 h -0.552 v -0.936 q -0.168,0.256 -0.432,0.488 -0.264,0.224 -0.64,0.368 -0.368,0.144 -0.848,0.144 z" />
         <path
            id="slogan-C-path-001"
            d="m 67.135901,0.064 q -0.792,0 -1.368,-0.36 -0.576,-0.368 -0.888,-0.984 -0.304,-0.616 -0.304,-1.368 0,-0.752 0.304,-1.368 0.312,-0.616 0.888,-0.976 0.576,-0.368 1.368,-0.368 0.6,0 1.08,0.216 0.48,0.208 0.816,0.576 0.336,0.368 0.504,0.856 h -0.632 q -0.2,-0.488 -0.632,-0.776 -0.432,-0.288 -1.088,-0.288 -0.64,0 -1.096,0.288 -0.448,0.28 -0.68,0.76 -0.232,0.48 -0.232,1.08 0,0.592 0.232,1.08 0.232,0.48 0.68,0.768 0.456,0.28 1.096,0.28 0.656,0 1.088,-0.288 0.432,-0.288 0.632,-0.776 h 0.632 q -0.168,0.48 -0.504,0.856 -0.336,0.368 -0.816,0.584 -0.48,0.208 -1.08,0.208 z" />
         <path
            id="slogan-O-path-002"
            d="m 76.191895,0.064 q -0.6,0 -1.096,-0.208 -0.496,-0.208 -0.856,-0.584 -0.352,-0.376 -0.544,-0.864 -0.192,-0.496 -0.192,-1.056 0,-0.568 0.192,-1.056 0.192,-0.488 0.544,-0.864 0.36,-0.376 0.856,-0.584 0.496,-0.208 1.096,-0.208 0.6,0 1.096,0.208 0.496,0.208 0.848,0.584 0.36,0.376 0.552,0.864 0.192,0.488 0.192,1.056 0,0.56 -0.192,1.056 -0.192,0.488 -0.552,0.864 -0.352,0.376 -0.848,0.584 -0.496,0.208 -1.096,0.208 z m 0,-0.584 q 0.648,0 1.112,-0.28 0.472,-0.288 0.72,-0.768 0.256,-0.488 0.256,-1.08 0,-0.6 -0.256,-1.08 -0.248,-0.48 -0.72,-0.76 -0.464,-0.288 -1.112,-0.288 -0.64,0 -1.112,0.288 -0.472,0.28 -0.728,0.76 -0.248,0.48 -0.248,1.08 0,0.592 0.248,1.08 0.256,0.48 0.728,0.768 0.472,0.28 1.112,0.28 z" />
         <path
            id="slogan-M-path-001"
            d="m 83.247884,0 v -5.296 h 0.696 l 1.896,2.512 1.864,-2.512 h 0.696 V 0 h -0.6 v -4.384 l -1.96,2.52 -1.992,-2.52 V 0 Z" />
         <path
            id="slogan-P-path-001"
            d="m 93.103872,0 v -5.296 h 2.384 q 0.848,0 1.336,0.464 0.488,0.456 0.488,1.24 0,0.784 -0.488,1.248 -0.488,0.456 -1.336,0.456 h -1.784 V 0 Z m 0.6,-2.448 h 1.744 q 0.624,0 0.944,-0.304 0.32,-0.304 0.32,-0.84 0,-0.528 -0.32,-0.832 -0.32,-0.304 -0.944,-0.304 h -1.744 z" />
         <path
            id="slogan-U-path-001"
            d="m 103.71986,0.064 q -0.656,0 -1.168,-0.288 -0.504,-0.296 -0.792,-0.824 -0.288,-0.528 -0.288,-1.232 v -3.016 h 0.6 v 3.032 q 0,0.616 0.232,1 0.24,0.384 0.616,0.568 0.384,0.176 0.8,0.176 0.424,0 0.8,-0.176 0.376,-0.184 0.616,-0.568 0.24,-0.384 0.24,-1 v -3.032 h 0.6 v 3.016 q 0,0.696 -0.288,1.224 -0.288,0.528 -0.8,0.824 -0.504,0.296 -1.168,0.296 z" />
         <path
            id="slogan-T-path-001"
            d="m 111.92785,0 v -4.728 h -1.848 v -0.568 h 4.296 v 0.568 h -1.848 V 0 Z" />
         <path
            id="slogan-A-path-001"
            d="m 117.91984,0 2.248,-5.296 h 0.752 l 2.248,5.296 h -0.664 l -0.648,-1.536 h -2.624 L 118.58384,0 Z m 1.544,-2.088 h 2.16 l -1.08,-2.584 z" />
         <path
            id="slogan-T-path-002"
            d="m 128.55984,0 v -4.728 h -1.848 v -0.568 h 4.296 v 0.568 h -1.848 V 0 Z" />
         <path
            id="slogan-I-path-002"
            d="m 135.17583,0 v -5.296 h 0.6 V 0 Z" />
         <path
            id="slogan-O-path-003"
            d="m 142.83182,0.064 q -0.6,0 -1.096,-0.208 -0.496,-0.208 -0.856,-0.584 -0.352,-0.376 -0.544,-0.864 -0.192,-0.496 -0.192,-1.056 0,-0.568 0.192,-1.056 0.192,-0.488 0.544,-0.864 0.36,-0.376 0.856,-0.584 0.496,-0.208 1.096,-0.208 0.6,0 1.096,0.208 0.496,0.208 0.848,0.584 0.36,0.376 0.552,0.864 0.192,0.488 0.192,1.056 0,0.56 -0.192,1.056 -0.192,0.488 -0.552,0.864 -0.352,0.376 -0.848,0.584 -0.496,0.208 -1.096,0.208 z m 0,-0.584 q 0.648,0 1.112,-0.28 0.472,-0.288 0.72,-0.768 0.256,-0.488 0.256,-1.08 0,-0.6 -0.256,-1.08 -0.248,-0.48 -0.72,-0.76 -0.464,-0.288 -1.112,-0.288 -0.64,0 -1.112,0.288 -0.472,0.28 -0.728,0.76 -0.248,0.48 -0.248,1.08 0,0.592 0.248,1.08 0.256,0.48 0.728,0.768 0.472,0.28 1.112,0.28 z" />
         <path
            id="slogan-N-path-003"
            d="m 149.88781,0 v -5.296 h 0.696 l 3.272,4.456 v -4.456 h 0.6 V 0 h -0.696 l -3.272,-4.472 V 0 Z" />
       </g>
    </g>
    <g
       id="icon"
       transform="matrix(2.4,0,0,2.4,0,7)"
       stroke="none"
       fill="#ffffff">
      <path
         id="icon-path"
         d="M 17.572,23.933 21.678,31.028 32,13.189 H 23.019 V 7.582 L 11.51,0.972 0,7.582 v 13.222 l 11.51,6.611 z m 10.96,-8.744 -6.855,11.846 -6.855,-11.846 z" />
    </g>
  </g>
</svg>
